<svg width="111" height="179" viewBox="0 0 111 179" fill="none" xmlns="http://www.w3.org/2000/svg">
<path fill-rule="evenodd" clip-rule="evenodd" d="M110 0H2V93.6004L59.6 36.1804H20V17.8204H92V90.1804H73.82V50.4004L16.4004 108H110V0Z" fill="white"/>
<path d="M1.15241 148.287L9.51018 136.679L9.48286 140.53L1.45285 129.168H7.54364L12.6785 136.57L10.0837 136.597L15.1366 129.168H20.9816L12.9516 140.312V136.488L21.4186 148.287H15.1913L9.9745 140.503H12.46L7.32514 148.287H1.15241ZM23.7083 148.287V129.168H28.1603L36.0811 142.169H33.7322L41.4344 129.168H45.8864L45.9411 148.287H40.9701L40.9155 136.734H41.7622L35.9992 146.403H33.5956L27.6687 136.734H28.7066V148.287H23.7083ZM48.5116 148.287L56.9513 129.168H62.2773L70.7443 148.287H65.1179L58.5081 131.817H60.6385L54.0288 148.287H48.5116ZM53.1275 144.573L54.5204 140.585H63.8615L65.2544 144.573H53.1275ZM73.3157 148.287V129.168H82.0558C83.8039 129.168 85.3061 129.45 86.5625 130.015C87.8371 130.579 88.8203 131.399 89.5123 132.473C90.2042 133.529 90.5502 134.785 90.5502 136.242C90.5502 137.681 90.2042 138.928 89.5123 139.984C88.8203 141.022 87.8371 141.823 86.5625 142.388C85.3061 142.934 83.8039 143.207 82.0558 143.207H76.3201L78.7236 140.94V148.287H73.3157ZM85.1422 148.287L80.3897 141.322H86.1528L90.9325 148.287H85.1422ZM78.7236 141.513L76.3201 139.028H81.7281C82.857 139.028 83.6946 138.782 84.2409 138.291C84.8053 137.799 85.0876 137.116 85.0876 136.242C85.0876 135.35 84.8053 134.658 84.2409 134.166C83.6946 133.675 82.857 133.429 81.7281 133.429H76.3201L78.7236 130.943V141.513ZM98.3748 148.287V133.456H92.5025V129.168H109.628V133.456H103.783V148.287H98.3748Z" fill="white"/>
<path d="M1.91191 177.064V157.945H7.31988V172.776H16.4424V177.064H1.91191ZM17.513 177.064L25.9527 157.945H31.2788L39.7458 177.064H34.1193L27.5096 160.595H29.64L23.0303 177.064H17.513ZM22.1289 173.35L23.5219 169.362H32.8629L34.2559 173.35H22.1289ZM42.3171 177.064V157.945H52.0952C54.608 157.945 56.4835 158.41 57.7217 159.338C58.9599 160.249 59.5789 161.451 59.5789 162.944C59.5789 163.927 59.3149 164.792 58.7869 165.538C58.277 166.267 57.5487 166.849 56.6018 167.286C55.6732 167.705 54.5625 167.915 53.2696 167.915L53.8159 166.604C55.1633 166.604 56.3378 166.813 57.3393 167.232C58.3408 167.632 59.1146 168.224 59.6609 169.007C60.2254 169.772 60.5076 170.71 60.5076 171.82C60.5076 173.477 59.8339 174.77 58.4864 175.699C57.1572 176.609 55.2089 177.064 52.6414 177.064H42.3171ZM47.6705 173.159H52.2044C53.1331 173.159 53.8341 173.004 54.3075 172.694C54.7992 172.367 55.045 171.875 55.045 171.219C55.045 170.564 54.7992 170.081 54.3075 169.772C53.8341 169.444 53.1331 169.28 52.2044 169.28H47.2881V165.538H51.3851C52.2955 165.538 52.9783 165.384 53.4335 165.074C53.8887 164.765 54.1163 164.3 54.1163 163.681C54.1163 163.062 53.8887 162.607 53.4335 162.315C52.9783 162.006 52.2955 161.851 51.3851 161.851H47.6705V173.159ZM71.0658 177.447C69.4999 177.447 67.9886 177.256 66.5319 176.873C65.0934 176.473 63.9189 175.963 63.0085 175.344L64.7839 171.356C65.6397 171.902 66.6229 172.358 67.7337 172.722C68.8626 173.068 69.9824 173.241 71.0932 173.241C71.8397 173.241 72.4406 173.177 72.8958 173.049C73.351 172.904 73.6788 172.722 73.8791 172.503C74.0976 172.266 74.2068 171.993 74.2068 171.684C74.2068 171.247 74.0065 170.901 73.6059 170.646C73.2054 170.391 72.6864 170.182 72.0491 170.018C71.4118 169.854 70.7017 169.69 69.9187 169.526C69.1539 169.362 68.3801 169.153 67.5971 168.898C66.8323 168.643 66.1313 168.315 65.494 167.915C64.8567 167.496 64.3377 166.959 63.9372 166.303C63.5366 165.629 63.3363 164.783 63.3363 163.763C63.3363 162.616 63.6458 161.578 64.2649 160.649C64.9022 159.721 65.8491 158.974 67.1055 158.41C68.3619 157.845 69.9278 157.563 71.8033 157.563C73.0597 157.563 74.2888 157.709 75.4905 158C76.7105 158.273 77.7939 158.683 78.7408 159.229L77.0747 163.244C76.1643 162.752 75.2629 162.388 74.3707 162.152C73.4785 161.897 72.6136 161.769 71.776 161.769C71.0294 161.769 70.4285 161.851 69.9733 162.015C69.5181 162.161 69.1903 162.361 68.9901 162.616C68.7898 162.871 68.6896 163.162 68.6896 163.49C68.6896 163.909 68.8808 164.246 69.2632 164.5C69.6638 164.737 70.1827 164.937 70.82 165.101C71.4755 165.247 72.1857 165.402 72.9504 165.566C73.7334 165.73 74.5073 165.939 75.272 166.194C76.055 166.431 76.7651 166.758 77.4025 167.177C78.0398 167.578 78.5496 168.115 78.932 168.789C79.3326 169.444 79.5329 170.273 79.5329 171.274C79.5329 172.385 79.2142 173.414 78.5769 174.36C77.9578 175.289 77.0201 176.036 75.7637 176.6C74.5255 177.165 72.9595 177.447 71.0658 177.447Z" fill="white"/>
</svg>
