<svg width="85" height="141" viewBox="0 0 85 141" fill="none" xmlns="http://www.w3.org/2000/svg">
<rect x="0.640625" y="0.562012" width="82.4333" height="86.4874" fill="white"/>
<path d="M46.242 29.084L0.640625 76.9281V87.049H10.2871L55.8885 40.125V72.3277H69.0427V14.3628H13.7949V29.084H46.242Z" fill="#161616"/>
<path d="M12.1893 117.049L9.17978 112.545L6.21174 117.049H1.52099L6.81365 109.702L1.7493 102.52H6.37779L9.28356 106.713L12.1478 102.52H16.5895L11.5252 109.536L16.9216 117.049H12.1893ZM31.7791 117.049L31.7376 109.349L28.0016 115.617H26.1751L22.4598 109.557V117.049H18.6616V102.52H22.0447L27.1506 110.906L32.1319 102.52H35.5151L35.5566 117.049H31.7791ZM48.9877 114.227H42.8441L41.7026 117.049H37.5099L43.9234 102.52H47.9707L54.4049 117.049H50.1293L48.9877 114.227ZM47.7839 111.196L45.9159 106.547L44.0479 111.196H47.7839ZM62.7101 113.189H60.4685V117.049H56.359V102.52H63.0007C64.3152 102.52 65.4568 102.742 66.4254 103.185C67.394 103.614 68.1412 104.236 68.667 105.053C69.1928 105.855 69.4557 106.803 69.4557 107.896C69.4557 108.948 69.2066 109.868 68.7085 110.657C68.2242 111.431 67.5254 112.04 66.6122 112.483L69.7463 117.049H65.3461L62.7101 113.189ZM65.3046 107.896C65.3046 107.218 65.0901 106.692 64.6612 106.319C64.2322 105.945 63.5957 105.758 62.7517 105.758H60.4685V110.013H62.7517C63.5957 110.013 64.2322 109.833 64.6612 109.474C65.0901 109.1 65.3046 108.574 65.3046 107.896ZM75.4017 105.779H70.9393V102.52H83.953V105.779H79.5113V117.049H75.4017V105.779Z" fill="white"/>
<path d="M2.09351 124.389H6.20311V135.659H13.1355V138.917H2.09351V124.389ZM25.4471 136.095H19.3035L18.1619 138.917H13.9693L20.3828 124.389H24.4301L30.8643 138.917H26.5887L25.4471 136.095ZM24.2433 133.064L22.3753 128.415L20.5073 133.064H24.2433ZM43.9848 131.342C44.815 131.632 45.4654 132.089 45.9358 132.712C46.4063 133.32 46.6415 134.061 46.6415 134.932C46.6415 136.205 46.1296 137.188 45.1056 137.88C44.0817 138.572 42.6011 138.917 40.6639 138.917H32.8183V124.389H40.2488C42.103 124.389 43.5144 124.735 44.4829 125.426C45.4515 126.104 45.9358 127.025 45.9358 128.187C45.9358 128.879 45.7629 129.501 45.4169 130.055C45.0849 130.595 44.6075 131.023 43.9848 131.342ZM36.8864 127.357V130.159H39.7092C41.0929 130.159 41.7847 129.688 41.7847 128.747C41.7847 127.82 41.0929 127.357 39.7092 127.357H36.8864ZM40.3318 135.949C41.7709 135.949 42.4904 135.458 42.4904 134.476C42.4904 133.493 41.7709 133.002 40.3318 133.002H36.8864V135.949H40.3318ZM54.6649 139.208C53.4888 139.208 52.3472 139.063 51.2402 138.772C50.1333 138.482 49.2339 138.094 48.542 137.61L49.8911 134.58C50.5415 135.009 51.2956 135.354 52.1535 135.617C53.0114 135.88 53.8554 136.012 54.6857 136.012C56.2631 136.012 57.0518 135.617 57.0518 134.829C57.0518 134.414 56.8235 134.109 56.3669 133.915C55.9241 133.708 55.2045 133.493 54.2083 133.272C53.1152 133.037 52.2019 132.788 51.4685 132.525C50.7352 132.248 50.1056 131.812 49.5798 131.217C49.054 130.622 48.7911 129.82 48.7911 128.81C48.7911 127.924 49.0332 127.128 49.5175 126.423C50.0018 125.703 50.7214 125.136 51.6761 124.721C52.6447 124.306 53.8278 124.098 55.2253 124.098C56.1801 124.098 57.121 124.209 58.0481 124.43C58.9751 124.638 59.7915 124.949 60.4972 125.364L59.2311 128.415C57.8474 127.668 56.5052 127.294 55.2045 127.294C54.3882 127.294 53.7932 127.419 53.4196 127.668C53.046 127.903 52.8592 128.215 52.8592 128.602C52.8592 128.989 53.0806 129.28 53.5233 129.474C53.9661 129.667 54.6787 129.868 55.6612 130.076C56.7681 130.311 57.6814 130.567 58.4009 130.844C59.1343 131.106 59.7638 131.535 60.2897 132.13C60.8293 132.712 61.0991 133.507 61.0991 134.517C61.0991 135.389 60.857 136.178 60.3727 136.883C59.8884 137.589 59.1619 138.156 58.1933 138.585C57.2248 139.001 56.0486 139.208 54.6649 139.208Z" fill="white"/>
</svg>
