<svg xmlns="http://www.w3.org/2000/svg" xmlns:xlink="http://www.w3.org/1999/xlink" width="181" height="54" viewBox="0 0 181 54">
    <defs>
        <path id="a" d="M35.335 24.245v20.284h8.834V9.048H8.834v8.87h20.283L0 47.035V.177h53.002V53.4H6.18l29.155-29.155z"/>
    </defs>
    <g fill="#d91965" fill-rule="evenodd">
        <path d="M62.613.147h6.398l3.934 6.002L76.91.147h6.487L76.46 10.251l7.539 11.038H77.42l-4.475-6.545-4.385 6.545h-6.427l7.478-10.767L62.613.147zm24.79 0h5.977l6.097 12.366L105.544.147h5.977V21.29h-4.866l-.03-13.39-5.376 11.279h-3.544l-5.406-11.28v13.39h-4.896V.149zm44.853 21.142l-1.442-3.74h-9.1l-1.472 3.74h-5.646l9.04-21.142h5.647l8.83 21.142h-5.857zm-8.89-7.962h5.827l-2.884-7.54-2.943 7.54zm30.466 7.962l-3.063-5.851h-4.085v5.85h-5.496V.149h9.46c2.784 0 4.941.648 6.473 1.945 1.532 1.296 2.298 3.121 2.298 5.473 0 1.589-.32 2.961-.962 4.117-.64 1.156-1.571 2.056-2.793 2.7l4.385 6.906h-6.217zm-7.148-10.254h3.995c1.12 0 1.987-.282 2.598-.845.61-.563.916-1.377.916-2.443 0-1.025-.306-1.814-.916-2.367-.611-.553-1.477-.83-2.598-.83h-3.995v6.485zm15.6-10.888h18.05v4.554h-6.307V21.29h-5.497V4.7h-6.247V.147zM62.288 32.08h5.497v16.437h8.92v4.705H62.288V32.081zm33.65 21.142l-1.441-3.74h-9.1l-1.473 3.74h-5.646l9.04-21.141h5.647l8.83 21.141h-5.857zm-8.89-7.962h5.827l-2.884-7.54-2.943 7.54zm31.953-12.531c1.171.432 2.077 1.05 2.718 1.855.641.804.961 1.749.961 2.835 0 1.106-.325 2.07-.976 2.895-.65.824-1.537 1.387-2.658 1.689 1.342.261 2.398.874 3.169 1.84.77.965 1.156 2.13 1.156 3.498 0 1.186-.33 2.227-.991 3.122-.66.894-1.602 1.578-2.823 2.05-1.222.473-2.653.71-4.295.71H104.87V32.08h10.001c1.582 0 2.959.216 4.13.648zm-2.628 7.208c.44-.372.66-.89.66-1.553 0-.644-.22-1.141-.66-1.493-.44-.352-1.041-.518-1.802-.498h-4.205v4.102h4.205c.76 0 1.362-.186 1.802-.558zm.48 8.4c.561-.403.842-.966.842-1.69 0-.663-.28-1.19-.841-1.583-.561-.392-1.322-.578-2.283-.558h-4.205v4.433h4.205c.961 0 1.722-.2 2.283-.603zm21.622-11.522c-1.272-.422-2.338-.633-3.199-.633-.68 0-1.216.126-1.607.377-.39.251-.585.618-.585 1.101 0 .462.17.85.51 1.161.34.312.761.563 1.262.754.5.191 1.241.437 2.222.739 1.462.422 2.668.844 3.62 1.267.95.422 1.766 1.07 2.447 1.945.68.875 1.021 2.016 1.021 3.423s-.37 2.609-1.111 3.604c-.74.995-1.757 1.744-3.048 2.247-1.292.503-2.729.754-4.31.754-1.742 0-3.48-.307-5.211-.92-1.732-.613-3.23-1.453-4.49-2.518l2.132-4.313c1.061.945 2.318 1.719 3.77 2.322 1.45.603 2.737.905 3.859.905.82 0 1.466-.15 1.937-.452.47-.302.706-.744.706-1.327a1.57 1.57 0 0 0-.526-1.207c-.35-.321-.79-.578-1.321-.769a31.045 31.045 0 0 0-2.238-.678c-1.442-.403-2.633-.81-3.574-1.222a6.329 6.329 0 0 1-2.418-1.87c-.67-.834-1.006-1.945-1.006-3.332 0-1.307.345-2.453 1.036-3.438.69-.986 1.672-1.745 2.943-2.278 1.272-.532 2.749-.799 4.43-.799 1.522 0 3.024.216 4.506.649 1.482.432 2.783 1.01 3.904 1.734l-2.072 4.403a18.43 18.43 0 0 0-3.59-1.629z"/>
        <use xlink:href="#a"/>
    </g>
</svg>
