<svg width="194" height="54" viewBox="0 0 194 54" fill="none" xmlns="http://www.w3.org/2000/svg">
<g id="Logo/TwoLines/Pink&#38;Black">
<path id="Subtract" fill-rule="evenodd" clip-rule="evenodd" d="M43 0H0V38.1334L22.9333 14.7401H7.16667V7.2601H35.8333V36.7401H28.595V20.5334L5.73343 44H43V0Z" fill="white"/>
<g id="Group 885">
<g id="XMART">
<path d="M56 18L63.2425 7.67857L63.2188 11.1029L56.2604 1H61.5384L65.988 7.58143L63.7395 7.60571L68.1181 1H73.1831L66.2247 10.9086V7.50857L73.5618 18H68.1655L63.6448 11.0786H65.7987L61.349 18H56Z" fill="white"/>
<path d="M75.546 18V1H79.4039L86.2677 12.56H84.2322L90.9067 1H94.7646L94.8119 18H90.5043L90.457 7.72714H91.1907L86.1967 16.3243H84.1139L78.9779 7.72714H79.8773V18H75.546Z" fill="white"/>
<path d="M97.0394 18L104.353 1H108.968L116.305 18H111.43L105.702 3.35571H107.548L101.82 18H97.0394ZM101.039 14.6971L102.246 11.1514H110.341L111.548 14.6971H101.039Z" fill="white"/>
<path d="M118.534 18V1H126.107C127.622 1 128.924 1.25095 130.013 1.75286C131.117 2.25476 131.969 2.98333 132.569 3.93857C133.168 4.87762 133.468 5.99476 133.468 7.29C133.468 8.56905 133.168 9.67809 132.569 10.6171C131.969 11.54 131.117 12.2524 130.013 12.7543C128.924 13.24 127.622 13.4829 126.107 13.4829H121.137L123.22 11.4671V18H118.534ZM128.782 18L124.664 11.8071H129.658L133.8 18H128.782ZM123.22 11.9771L121.137 9.76714H125.823C126.802 9.76714 127.527 9.54857 128.001 9.11143C128.49 8.67429 128.735 8.06714 128.735 7.29C128.735 6.49667 128.49 5.88143 128.001 5.44429C127.527 5.00714 126.802 4.78857 125.823 4.78857H121.137L123.22 2.57857V11.9771Z" fill="white"/>
<path d="M140.249 18V4.81286H135.16V1H150V4.81286H144.935V18H140.249Z" fill="white"/>
</g>
<g id="labs">
<path d="M56 42.6731V26.3269H60.7377V39.0069H68.7295V42.6731H56Z" fill="white"/>
<path d="M69.6674 42.6731L77.061 26.3269H81.7269L89.1445 42.6731H84.2154L78.4249 28.592H80.2912L74.5008 42.6731H69.6674ZM73.7112 39.4973L74.9315 36.0879H83.1147L84.335 39.4973H73.7112Z" fill="white"/>
<path d="M91.3971 42.6731V26.3269H99.9632C102.165 26.3269 103.808 26.7239 104.892 27.5179C105.977 28.2962 106.519 29.3237 106.519 30.6003C106.519 31.4409 106.288 32.1804 105.825 32.8187C105.379 33.4414 104.741 33.9396 103.911 34.3132C103.098 34.6712 102.125 34.8503 100.992 34.8503L101.471 33.7294C102.651 33.7294 103.68 33.9084 104.557 34.2665C105.435 34.609 106.113 35.1149 106.591 35.7843C107.086 36.4382 107.333 37.2399 107.333 38.1896C107.333 39.6062 106.743 40.7115 105.562 41.5055C104.398 42.2839 102.691 42.6731 100.442 42.6731H91.3971ZM96.0869 39.3338H100.059C100.872 39.3338 101.487 39.2015 101.901 38.9368C102.332 38.6566 102.547 38.2363 102.547 37.6758C102.547 37.1154 102.332 36.7028 101.901 36.4382C101.487 36.158 100.872 36.0179 100.059 36.0179H95.7519V32.8187H99.341C100.139 32.8187 100.737 32.6864 101.136 32.4217C101.534 32.1571 101.734 31.7601 101.734 31.2308C101.734 30.7015 101.534 30.3123 101.136 30.0632C100.737 29.7985 100.139 29.6662 99.341 29.6662H96.0869V39.3338Z" fill="white"/>
<path d="M116.582 43C115.211 43 113.887 42.8365 112.61 42.5096C111.35 42.1671 110.321 41.7312 109.524 41.2019L111.079 37.7926C111.829 38.2596 112.69 38.6488 113.663 38.9602C114.652 39.256 115.633 39.4038 116.606 39.4038C117.26 39.4038 117.787 39.3494 118.186 39.2404C118.584 39.1158 118.872 38.9602 119.047 38.7734C119.238 38.571 119.334 38.3375 119.334 38.0728C119.334 37.6992 119.159 37.4034 118.808 37.1854C118.457 36.9675 118.002 36.7885 117.444 36.6484C116.886 36.5082 116.263 36.3681 115.577 36.228C114.908 36.0879 114.23 35.9089 113.544 35.6909C112.874 35.473 112.26 35.1928 111.701 34.8503C111.143 34.4922 110.688 34.033 110.337 33.4725C109.986 32.8965 109.811 32.1726 109.811 31.3008C109.811 30.3201 110.082 29.4327 110.624 28.6387C111.183 27.8448 112.012 27.2065 113.113 26.7239C114.214 26.2413 115.585 26 117.228 26C118.329 26 119.406 26.1245 120.459 26.3736C121.527 26.6071 122.477 26.9574 123.306 27.4245L121.847 30.8571C121.049 30.4368 120.259 30.1255 119.478 29.9231C118.696 29.7051 117.938 29.5962 117.205 29.5962C116.551 29.5962 116.024 29.6662 115.625 29.8063C115.227 29.9309 114.939 30.1021 114.764 30.3201C114.588 30.538 114.501 30.7871 114.501 31.0673C114.501 31.4254 114.668 31.7134 115.003 31.9313C115.354 32.1337 115.809 32.3049 116.367 32.4451C116.941 32.5696 117.563 32.7019 118.233 32.842C118.919 32.9821 119.597 33.1612 120.267 33.3791C120.953 33.5815 121.575 33.8617 122.134 34.2198C122.692 34.5623 123.139 35.0215 123.474 35.5975C123.825 36.158 124 36.8663 124 37.7225C124 38.6722 123.721 39.5517 123.163 40.3613C122.62 41.1552 121.799 41.7935 120.698 42.2761C119.613 42.7587 118.241 43 116.582 43Z" fill="white"/>
</g>
</g>
</g>
</svg>
